<?xml version="1.0" encoding="UTF-8"?>
<svg xmlns="http://www.w3.org/2000/svg" xmlns:xlink="http://www.w3.org/1999/xlink" width="126px" height="150px" viewBox="0 0 62 74" version="1.1">
<g id="surface1">
<path style=" stroke:none;fill-rule:nonzero;fill:rgb(12.941176%,82.745098%,67.45098%);fill-opacity:1;" d="M 61.445312 14.496094 L 55.042969 1.558594 C 54.488281 0.402344 53.078125 -0.0507812 51.917969 0.503906 L 38.964844 6.898438 C 37.804688 7.449219 37.351562 8.859375 37.90625 10.019531 C 38.460938 11.175781 39.871094 11.628906 41.03125 11.074219 L 48.996094 7.148438 C 40.679688 28.542969 13.609375 41.480469 2.21875 44.148438 C 0.957031 44.449219 0.203125 45.707031 0.453125 46.96875 C 0.707031 48.023438 1.664062 48.78125 2.722656 48.78125 C 2.921875 48.78125 3.074219 48.78125 3.277344 48.730469 C 15.980469 45.757812 44.40625 32.167969 53.378906 8.707031 L 57.261719 16.613281 C 57.664062 17.417969 58.472656 17.921875 59.378906 17.921875 C 59.730469 17.921875 60.085938 17.820312 60.386719 17.667969 C 61.546875 17.066406 62 15.65625 61.445312 14.496094 Z M 61.445312 14.496094 "/>
<path style=" stroke:none;fill-rule:nonzero;fill:rgb(12.941176%,82.745098%,67.45098%);fill-opacity:1;" d="M 61.445312 14.496094 L 55.042969 1.558594 C 54.488281 0.402344 53.078125 -0.0507812 51.917969 0.503906 L 38.964844 6.898438 C 37.804688 7.449219 37.351562 8.859375 37.90625 10.019531 C 38.460938 11.175781 39.871094 11.628906 41.03125 11.074219 L 48.996094 7.148438 C 40.679688 28.542969 13.609375 41.480469 2.21875 44.148438 C 0.957031 44.449219 0.203125 45.707031 0.453125 46.96875 C 0.707031 48.023438 1.664062 48.78125 2.722656 48.78125 C 2.921875 48.78125 3.074219 48.78125 3.277344 48.730469 C 15.980469 45.757812 44.40625 32.167969 53.378906 8.707031 L 57.261719 16.613281 C 57.664062 17.417969 58.472656 17.921875 59.378906 17.921875 C 59.730469 17.921875 60.085938 17.820312 60.386719 17.667969 C 61.546875 17.066406 62 15.65625 61.445312 14.496094 Z M 61.445312 14.496094 "/>
<path style=" stroke:none;fill-rule:nonzero;fill:rgb(28.627451%,53.333333%,99.215686%);fill-opacity:1;" d="M 12.347656 73.648438 L 2.417969 73.648438 C 1.460938 73.648438 0.707031 72.890625 0.707031 71.9375 L 0.707031 60.960938 C 0.707031 60.003906 1.460938 59.25 2.417969 59.25 L 12.347656 59.25 C 13.308594 59.25 14.0625 60.003906 14.0625 60.960938 L 14.0625 71.9375 C 14.011719 72.890625 13.257812 73.648438 12.347656 73.648438 Z M 12.347656 73.648438 "/>
<path style=" stroke:none;fill-rule:nonzero;fill:rgb(28.627451%,53.333333%,99.215686%);fill-opacity:1;" d="M 34.328125 73.648438 L 24.398438 73.648438 C 23.4375 73.648438 22.683594 72.890625 22.683594 71.9375 L 22.683594 48.175781 C 22.683594 47.21875 23.4375 46.464844 24.398438 46.464844 L 34.328125 46.464844 C 35.285156 46.464844 36.039062 47.21875 36.039062 48.175781 L 36.039062 71.9375 C 35.992188 72.890625 35.234375 73.648438 34.328125 73.648438 Z M 34.328125 73.648438 "/>
<path style=" stroke:none;fill-rule:nonzero;fill:rgb(28.627451%,53.333333%,99.215686%);fill-opacity:1;" d="M 56.304688 73.648438 L 46.375 73.648438 C 45.417969 73.648438 44.660156 72.890625 44.660156 71.9375 L 44.660156 30.65625 C 44.660156 29.699219 45.417969 28.945312 46.375 28.945312 L 56.304688 28.945312 C 57.261719 28.945312 58.019531 29.699219 58.019531 30.65625 L 58.019531 71.9375 C 57.96875 72.890625 57.210938 73.648438 56.304688 73.648438 Z M 56.304688 73.648438 "/>
</g>
</svg>
