<?xml version="1.0" encoding="UTF-8"?>
<svg xmlns="http://www.w3.org/2000/svg" xmlns:xlink="http://www.w3.org/1999/xlink" width="200px" height="150px" viewBox="0 0 72 54" version="1.1">
<g id="surface1">
<path style=" stroke:none;fill-rule:nonzero;fill:rgb(22.352941%,45.098039%,95.686275%);fill-opacity:1;" d="M 69.28125 48.75 L 7.703125 48.75 C 6.292969 48.75 5.136719 47.589844 5.136719 46.175781 L 5.136719 2.726562 C 5.136719 1.3125 6.292969 0.152344 7.703125 0.152344 L 69.28125 0.152344 C 70.691406 0.152344 71.847656 1.3125 71.847656 2.726562 L 71.847656 46.175781 C 71.847656 47.640625 70.691406 48.75 69.28125 48.75 Z M 69.28125 48.75 "/>
<path style=" stroke:none;fill-rule:nonzero;fill:rgb(37.647059%,59.215686%,99.215686%);fill-opacity:1;" d="M 0.101562 8.578125 L 0.101562 50.113281 C 0.101562 52.03125 1.609375 53.546875 3.523438 53.546875 L 62.585938 53.546875 C 64.496094 53.546875 66.007812 51.980469 66.007812 50.113281 L 66.007812 8.78125 C 66.007812 6.761719 64.398438 5.148438 62.382812 5.148438 L 3.523438 5.148438 Z M 0.101562 8.578125 "/>
<path style=" stroke:none;fill-rule:nonzero;fill:rgb(28.627451%,53.333333%,99.215686%);fill-opacity:1;" d="M 43.90625 13.828125 L 0.101562 13.828125 L 0.101562 8.578125 C 0.101562 6.660156 1.609375 5.148438 3.523438 5.148438 L 62.585938 5.148438 C 64.496094 5.148438 66.007812 6.660156 66.007812 8.578125 L 66.007812 13.828125 Z M 43.90625 13.828125 "/>
<path style=" stroke:none;fill-rule:nonzero;fill:rgb(100%,100%,100%);fill-opacity:1;" d="M 5.4375 8.074219 C 4.632812 8.074219 3.976562 8.730469 3.976562 9.539062 C 3.976562 10.347656 4.632812 11 5.4375 11 C 6.246094 11 6.898438 10.347656 6.898438 9.539062 C 6.898438 8.730469 6.246094 8.074219 5.4375 8.074219 Z M 5.4375 8.074219 "/>
<path style=" stroke:none;fill-rule:nonzero;fill:rgb(87.45098%,92.54902%,99.215686%);fill-opacity:1;" d="M 9.816406 8.074219 C 9.011719 8.074219 8.359375 8.730469 8.359375 9.539062 C 8.359375 10.347656 9.011719 11 9.816406 11 C 10.625 11 11.277344 10.347656 11.277344 9.539062 C 11.277344 8.730469 10.625 8.074219 9.816406 8.074219 Z M 9.816406 8.074219 "/>
<path style=" stroke:none;fill-rule:nonzero;fill:rgb(76.862745%,85.098039%,94.901961%);fill-opacity:1;" d="M 14.199219 8.074219 C 13.390625 8.074219 12.738281 8.730469 12.738281 9.539062 C 12.738281 10.347656 13.390625 11 14.199219 11 C 15.003906 11 15.660156 10.347656 15.660156 9.539062 C 15.660156 8.730469 15.003906 8.074219 14.199219 8.074219 Z M 14.199219 8.074219 "/>
<path style=" stroke:none;fill-rule:nonzero;fill:rgb(22.352941%,45.098039%,95.686275%);fill-opacity:1;" d="M 23.964844 42.542969 C 23.414062 42.542969 22.910156 42.34375 22.558594 41.886719 L 16.515625 34.722656 C 15.910156 34.015625 15.910156 33.003906 16.515625 32.300781 L 22.558594 25.132812 C 23.210938 24.324219 24.417969 24.222656 25.175781 24.929688 C 25.980469 25.585938 26.082031 26.796875 25.375 27.554688 L 20.339844 33.511719 L 25.375 39.464844 C 26.03125 40.273438 25.929688 41.433594 25.175781 42.089844 C 24.824219 42.441406 24.371094 42.542969 23.964844 42.542969 Z M 23.964844 42.542969 "/>
<path style=" stroke:none;fill-rule:nonzero;fill:rgb(22.352941%,45.098039%,95.686275%);fill-opacity:1;" d="M 41.335938 42.542969 C 40.933594 42.542969 40.480469 42.390625 40.128906 42.089844 C 39.324219 41.433594 39.222656 40.222656 39.925781 39.464844 L 44.960938 33.511719 L 39.925781 27.554688 C 39.273438 26.746094 39.375 25.585938 40.128906 24.929688 C 40.933594 24.273438 42.09375 24.375 42.746094 25.132812 L 48.789062 32.300781 C 49.394531 33.003906 49.394531 34.015625 48.789062 34.722656 L 42.746094 41.886719 C 42.394531 42.34375 41.890625 42.542969 41.335938 42.542969 Z M 41.335938 42.542969 "/>
<path style=" stroke:none;fill-rule:nonzero;fill:rgb(22.352941%,45.098039%,95.686275%);fill-opacity:1;" d="M 30.007812 43.097656 C 29.808594 43.097656 29.605469 43.046875 29.402344 43 C 28.449219 42.644531 27.894531 41.585938 28.246094 40.625 L 33.53125 25.585938 C 33.886719 24.628906 34.941406 24.074219 35.898438 24.425781 C 36.855469 24.78125 37.410156 25.839844 37.058594 26.796875 L 31.769531 41.835938 C 31.519531 42.59375 30.761719 43.097656 30.007812 43.097656 Z M 30.007812 43.097656 "/>
</g>
</svg>
