<?xml version="1.0" encoding="UTF-8"?>
<svg xmlns="http://www.w3.org/2000/svg" xmlns:xlink="http://www.w3.org/1999/xlink" width="225px" height="150px" viewBox="0 0 75 50" version="1.1">
<g id="surface1">
<path style=" stroke:none;fill-rule:nonzero;fill:rgb(100%,100%,100%);fill-opacity:1;" d="M 28.75 19.648438 L 29.300781 18.699219 "/>
<path style=" stroke:none;fill-rule:nonzero;fill:rgb(28.627451%,53.333333%,99.215686%);fill-opacity:1;" d="M 37.898438 7.351562 L 37.601562 6.800781 C 37.25 6.199219 36.449219 6.101562 36 6.601562 C 35.949219 6.648438 35.949219 6.648438 35.898438 6.699219 C 35.851562 6.75 35.851562 6.75 35.800781 6.800781 L 35.398438 7.550781 L 30.5 16.449219 L 30.398438 16.648438 L 26.601562 23.550781 C 23.648438 28.949219 23 29.5 23.5 30.601562 C 23.851562 31.5 24.550781 31.5 26.050781 32.699219 C 26.601562 33 28.148438 34.550781 28.800781 36.5 C 28.851562 36.648438 28.898438 36.75 28.898438 36.898438 C 28.898438 36.898438 28.949219 37.101562 29.050781 37.398438 C 29.148438 37.800781 29.25 38.75 29.351562 39.699219 C 29.351562 40 29.398438 40.351562 29.398438 40.648438 L 44 40.199219 C 44 40.050781 44 39.851562 44.050781 39.699219 C 44.101562 39.199219 44.148438 38.648438 44.148438 38.449219 C 44.148438 38.449219 44.300781 37.601562 44.351562 37.398438 C 44.351562 37.351562 44.351562 37.351562 44.351562 37.351562 C 44.351562 37.351562 44.5 36.648438 44.5 36.648438 C 44.648438 36.148438 44.898438 35.050781 45.800781 33.800781 C 47.25 31.800781 48.851562 31.5 49.398438 30.898438 C 49.449219 30.851562 49.648438 30.648438 49.648438 30.550781 C 49.75 30.398438 49.851562 30.101562 49.851562 30.050781 C 50.101562 29.148438 49.949219 29.25 37.898438 7.351562 Z M 36.75 33.851562 C 34.75 33.851562 33.148438 32.25 33.148438 30.25 C 33.148438 28.25 34.75 26.648438 36.75 26.648438 C 38.75 26.648438 40.351562 28.25 40.351562 30.25 C 40.351562 32.25 38.75 33.851562 36.75 33.851562 Z M 36.75 33.851562 "/>
<path style=" stroke:none;fill-rule:nonzero;fill:rgb(15.294118%,40.392157%,95.686275%);fill-opacity:1;" d="M 44.351562 37.351562 C 44.300781 37.550781 44.148438 38.398438 44.148438 38.398438 C 44.101562 38.648438 44.050781 39.449219 44 40.148438 L 29.398438 40.601562 C 29.351562 39.398438 29.199219 37.898438 29.050781 37.351562 Z M 44.351562 37.351562 "/>
<path style=" stroke:none;fill-rule:nonzero;fill:rgb(22.352941%,45.098039%,95.686275%);fill-opacity:1;" d="M 37.898438 7.351562 L 37.898438 24.398438 C 37.898438 25.101562 37.351562 25.648438 36.648438 25.648438 C 35.949219 25.648438 35.398438 25.101562 35.398438 24.398438 L 35.398438 7.5 L 35.800781 6.75 C 35.800781 6.699219 35.851562 6.648438 35.898438 6.648438 C 35.949219 6.601562 35.949219 6.601562 36 6.550781 C 36.449219 6.101562 37.25 6.148438 37.601562 6.75 Z M 37.898438 7.351562 "/>
<path style=" stroke:none;fill-rule:nonzero;fill:rgb(8.627451%,46.27451%,93.333333%);fill-opacity:1;" d="M 74.550781 29.648438 L 72 27.101562 C 70.800781 23.75 69.101562 20.601562 66.949219 17.75 C 64.851562 14.898438 62.300781 12.351562 59.449219 10.199219 C 56.851562 8.25 54.050781 6.699219 51.148438 5.5 L 64.851562 5.5 C 65.300781 6.5 66.351562 7.199219 67.5 7.199219 C 69.101562 7.199219 70.449219 5.898438 70.449219 4.25 C 70.449219 2.648438 69.148438 1.300781 67.5 1.300781 C 66.351562 1.300781 65.300781 2 64.851562 3 L 41 3 C 40.699219 2.949219 40.351562 2.949219 40.050781 2.898438 L 37.648438 0.5 C 37.148438 0 36.351562 0 35.851562 0.5 L 33.398438 3 L 9.449219 3 C 8.949219 2 7.949219 1.300781 6.800781 1.300781 C 5.148438 1.300781 3.851562 2.648438 3.851562 4.25 C 3.851562 5.898438 5.199219 7.199219 6.800781 7.199219 C 8 7.199219 9.050781 6.5 9.5 5.449219 L 23.601562 5.449219 C 20.648438 6.648438 17.898438 8.199219 15.300781 10.148438 C 9.601562 14.449219 5.199219 20.449219 2.75 27.101562 L 0.300781 29.550781 C 0 29.851562 0 30.300781 0.300781 30.601562 L 3.699219 34 C 3.851562 34.148438 4.050781 34.199219 4.25 34.199219 C 4.449219 34.199219 4.648438 34.148438 4.800781 34 L 8.199219 30.601562 C 8.5 30.300781 8.5 29.851562 8.199219 29.550781 L 5.550781 26.898438 C 10.25 14.949219 21.148438 6.699219 33.898438 5.398438 L 36 7.5 C 36.25 7.75 36.550781 7.851562 36.898438 7.851562 C 37.25 7.851562 37.550781 7.699219 37.800781 7.5 L 39.898438 5.398438 L 41 5.398438 C 53.800781 6.699219 64.699219 14.949219 69.398438 26.949219 L 66.800781 29.550781 C 66.5 29.851562 66.5 30.300781 66.800781 30.601562 L 70.199219 34 C 70.351562 34.148438 70.550781 34.199219 70.75 34.199219 C 70.949219 34.199219 71.148438 34.148438 71.300781 34 L 74.699219 30.601562 C 74.800781 30.449219 74.800781 29.949219 74.550781 29.648438 Z M 66.699219 3.199219 C 66.898438 3.050781 67.199219 2.949219 67.5 2.949219 C 68.25 2.949219 68.851562 3.550781 68.851562 4.300781 C 68.851562 5.050781 68.25 5.648438 67.5 5.648438 C 67.199219 5.648438 66.898438 5.550781 66.699219 5.398438 C 66.351562 5.148438 66.148438 4.75 66.148438 4.351562 C 66.148438 3.800781 66.398438 3.398438 66.699219 3.199219 Z M 7.351562 5.5 C 7.148438 5.601562 6.949219 5.648438 6.75 5.648438 C 6 5.648438 5.398438 5.050781 5.398438 4.300781 C 5.398438 3.550781 6 2.949219 6.75 2.949219 C 6.898438 2.949219 7.101562 3 7.25 3.050781 C 7.75 3.25 8.101562 3.75 8.101562 4.300781 C 8.101562 4.800781 7.800781 5.25 7.351562 5.5 Z M 6.5 30.148438 L 4.148438 32.5 L 1.800781 30.148438 L 4.148438 27.800781 L 4.851562 28.5 Z M 37.699219 5.5 L 36.800781 6.398438 L 35.898438 5.5 L 34.449219 4.050781 L 36.800781 1.699219 L 37.898438 2.800781 L 38.050781 2.949219 L 39.101562 4 L 37.851562 5.25 Z M 70.601562 32.550781 L 68.25 30.199219 L 69.851562 28.601562 L 70.601562 27.851562 L 72.949219 30.199219 Z M 70.601562 32.550781 "/>
<path style=" stroke:none;fill-rule:nonzero;fill:rgb(22.352941%,45.098039%,95.686275%);fill-opacity:1;" d="M 41.5 49.648438 L 28.050781 49.648438 C 27.300781 49.648438 26.699219 49.050781 26.699219 48.300781 L 26.699219 41.101562 C 26.699219 40.351562 27.300781 39.75 28.050781 39.75 L 45.300781 39.75 C 46.050781 39.75 46.648438 40.351562 46.648438 41.101562 L 46.648438 48.300781 C 46.648438 49.050781 46.050781 49.648438 45.300781 49.648438 Z M 41.5 49.648438 "/>
</g>
</svg>
