<?xml version="1.0" encoding="UTF-8"?>
<svg xmlns="http://www.w3.org/2000/svg" xmlns:xlink="http://www.w3.org/1999/xlink" width="151px" height="150px" viewBox="0 0 36 35" version="1.1">
<g id="surface1">
<path style=" stroke:none;fill-rule:nonzero;fill:rgb(15.294118%,40.392157%,95.686275%);fill-opacity:1;" d="M 19.359375 2.539062 C 10.253906 2.539062 2.871094 9.765625 2.871094 18.683594 C 2.871094 27.597656 10.253906 34.828125 19.359375 34.828125 C 28.464844 34.828125 35.847656 27.597656 35.847656 18.683594 C 35.847656 9.765625 28.464844 2.539062 19.359375 2.539062 Z M 19.359375 2.539062 "/>
<path style=" stroke:none;fill-rule:nonzero;fill:rgb(28.627451%,53.333333%,99.215686%);fill-opacity:1;" d="M 19.359375 8.160156 C 13.421875 8.160156 8.609375 12.871094 8.609375 18.683594 C 8.609375 24.496094 13.421875 29.207031 19.359375 29.207031 C 25.296875 29.207031 30.109375 24.496094 30.109375 18.683594 C 30.109375 12.871094 25.296875 8.160156 19.359375 8.160156 Z M 19.359375 8.160156 "/>
<path style=" stroke:none;fill-rule:nonzero;fill:rgb(15.294118%,40.392157%,95.686275%);fill-opacity:1;" d="M 19.359375 13.828125 C 16.621094 13.828125 14.398438 16 14.398438 18.683594 C 14.398438 21.363281 16.621094 23.539062 19.359375 23.539062 C 22.097656 23.539062 24.320312 21.363281 24.320312 18.683594 C 24.320312 16 22.097656 13.824219 19.359375 13.824219 Z M 19.359375 13.828125 "/>
<path style=" stroke:none;fill-rule:nonzero;fill:rgb(77.254902%,86.27451%,98.039216%);fill-opacity:1;" d="M 12.410156 10.84375 L 19.660156 17.945312 C 19.988281 18.265625 19.988281 18.78125 19.660156 19.101562 C 19.335938 19.421875 18.804688 19.421875 18.476562 19.101562 L 2.542969 3.5 C 2.214844 3.179688 2.214844 2.660156 2.542969 2.339844 C 2.871094 2.019531 3.398438 2.019531 3.726562 2.339844 L 9.214844 7.714844 "/>
<path style=" stroke:none;fill-rule:nonzero;fill:rgb(12.941176%,82.745098%,67.45098%);fill-opacity:1;" d="M 10.976562 7.371094 L 11 6.851562 C 11.050781 6.160156 10.800781 5.496094 10.296875 5.027344 L 5.335938 0.171875 C 4.984375 -0.171875 4.378906 0.0507812 4.355469 0.542969 L 4.128906 3.945312 L 0.65625 4.164062 C 0.152344 4.191406 -0.0507812 4.78125 0.277344 5.125 L 5.238281 9.980469 C 5.738281 10.476562 6.417969 10.722656 7.097656 10.671875 L 9.945312 10.476562 C 10.398438 10.449219 10.773438 10.082031 10.800781 9.636719 Z M 10.976562 7.371094 "/>
</g>
</svg>
